<?xml version="1.0" encoding="UTF-8"?>
<svg version="1.1" xmlns="http://www.w3.org/2000/svg" width="143" height="143">
<path d="M0 0 C15.20263618 11.95453818 24.53556834 28.58076485 27.40234375 47.6796875 C27.52850767 49.01111949 27.63141927 50.34489582 27.71484375 51.6796875 C27.79412109 52.8553125 27.79412109 52.8553125 27.875 54.0546875 C28.55357108 73.88076431 21.21202752 93.13548492 7.765625 107.71484375 C-7.26358477 122.11425806 -25.68105902 129.275563 -46.4675293 129.09741211 C-66.33492796 128.42526234 -83.74835571 120.04609764 -97.28515625 105.6796875 C-98.03410156 104.88820313 -98.78304687 104.09671875 -99.5546875 103.28125 C-113.1433682 87.639977 -116.4304026 68.50501613 -115.48779297 48.38818359 C-114.06082516 29.31495364 -103.66686161 14.23692304 -90.07421875 1.62890625 C-64.09227446 -20.15149687 -26.83313551 -19.43396526 0 0 Z " fill="#000000" transform="translate(115.28515625,14.3203125)"/>
<path d="M0 0 C3.5 0.25 3.5 0.25 5.5 2.25 C5.72705078 5.23095703 5.72705078 5.23095703 5.6953125 9.0078125 C5.6924826 9.67086395 5.68965271 10.33391541 5.68673706 11.01705933 C5.67553435 13.13655583 5.65043051 15.25563104 5.625 17.375 C5.61497028 18.81119182 5.60584441 20.24739025 5.59765625 21.68359375 C5.575595 25.20586628 5.54106494 28.72789203 5.5 32.25 C6.93049683 32.22643433 6.93049683 32.22643433 8.38989258 32.20239258 C11.92886913 32.14808322 15.46780886 32.11364667 19.00708008 32.08520508 C20.53871861 32.07012064 22.07031398 32.04965022 23.60180664 32.02368164 C25.80365654 31.98728153 28.00493533 31.97027087 30.20703125 31.95703125 C30.89150833 31.94154739 31.57598541 31.92606354 32.28120422 31.91011047 C35.14228686 31.90909819 37.04419788 31.93280504 39.43164062 33.59423828 C41.14325441 36.24692673 40.87211406 38.15656691 40.5 41.25 C39.20703125 44.30859375 39.20703125 44.30859375 37.3125 47.6875 C36.96735352 48.31003662 36.62220703 48.93257324 36.26660156 49.57397461 C35.47820696 50.98987041 34.68331858 52.40216241 33.88330078 53.81152344 C32.31393054 56.57800242 30.76437446 59.35517492 29.21484375 62.1328125 C22.62853496 73.89308331 22.62853496 73.89308331 19.5 79.25 C19.1191626 79.90846924 18.7383252 80.56693848 18.34594727 81.24536133 C17.33203125 82.8984375 17.33203125 82.8984375 15.5 85.25 C12.06105564 85.79299121 9.78486967 86.09850582 6.8034668 84.12963867 C4.84991523 81.31255803 5.16255494 79.00830657 5.20703125 75.61328125 C5.2215332 73.66518555 5.2215332 73.66518555 5.23632812 71.67773438 C5.26139415 70.30598361 5.28678899 68.93423882 5.3125 67.5625 C5.3275498 66.17905076 5.3412377 64.79558599 5.35351562 63.41210938 C5.38892777 60.02434793 5.43831946 56.63736861 5.5 53.25 C4.54633545 53.27094727 3.5926709 53.29189453 2.61010742 53.31347656 C-0.92880228 53.38588768 -4.46764656 53.43180271 -8.00708008 53.46972656 C-9.53876762 53.4898398 -11.07037839 53.5171345 -12.60180664 53.55175781 C-14.80374073 53.60029315 -17.00465982 53.62296996 -19.20703125 53.640625 C-19.89150833 53.66127014 -20.57598541 53.68191528 -21.28120422 53.70318604 C-24.47041621 53.70469053 -26.08024308 53.64403395 -28.45214844 51.41748047 C-30.04757997 48.11733108 -29.61397297 45.60522709 -28.5 42.25 C-26.73196728 38.49808316 -24.66709265 34.94667244 -22.5625 31.375 C-21.68984497 29.86546753 -21.68984497 29.86546753 -20.79956055 28.32543945 C-19.04343735 25.29410213 -17.27214996 22.27198732 -15.5 19.25 C-14.49373282 17.51233149 -13.4884498 15.7740925 -12.484375 14.03515625 C-11.59463927 12.50208772 -10.7040698 10.96950263 -9.8125 9.4375 C-9.40330322 8.73318848 -8.99410645 8.02887695 -8.57250977 7.30322266 C-4.46035278 0.31859663 -4.46035278 0.31859663 0 0 Z " fill="#FDFDFD" transform="translate(65.5,28.75)"/>
</svg>
